<svg xmlns="http://www.w3.org/2000/svg" xmlns:xlink="http://www.w3.org/1999/xlink" width="500" zoomAndPan="magnify" viewBox="0 0 375 374.999991" height="500" preserveAspectRatio="xMidYMid meet" version="1.0"><defs><g/><clipPath id="5554061b51"><path d="M 35.738281 125.542969 L 136.988281 125.542969 L 136.988281 238.792969 L 35.738281 238.792969 Z M 35.738281 125.542969 " clip-rule="nonzero"/></clipPath></defs><rect x="-37.5" width="450" fill="#ffffff" y="-37.499999" height="449.999989" fill-opacity="1"/><rect x="-37.5" width="450" fill="#ffffff" y="-37.499999" height="449.999989" fill-opacity="1"/><g clip-path="url(#5554061b51)"><path fill="#1c7bc8" d="M 108.648438 148.078125 C 108.648438 135.636719 98.554688 125.542969 86.113281 125.542969 C 80.0625 125.542969 74.550781 127.9375 70.507812 131.84375 L 56.308594 127.328125 L 55.019531 131.414062 L 67.484375 135.367188 C 67.257812 135.703125 67.03125 136.066406 66.804688 136.425781 L 57.796875 144.667969 L 63.621094 146.519531 C 63.578125 147.039062 63.554688 147.558594 63.554688 148.078125 C 63.554688 156.839844 68.546875 164.425781 75.839844 168.152344 L 75.839844 173.140625 L 72.089844 173.277344 L 72.089844 188.519531 L 101.667969 188.519531 L 101.667969 173.324219 L 96.296875 173.164062 L 96.296875 168.175781 C 103.632812 164.402344 108.648438 156.816406 108.648438 148.078125 Z M 77.847656 144.195312 C 77.214844 146.203125 75.070312 147.3125 73.0625 146.679688 C 71.050781 146.046875 69.945312 143.902344 70.578125 141.890625 C 71.210938 139.882812 73.355469 138.777344 75.363281 139.40625 C 77.375 140.039062 78.480469 142.183594 77.847656 144.195312 Z M 102.550781 203.375 C 101.039062 205.996094 98.191406 207.351562 95.371094 207.078125 L 89.023438 218.054688 C 90.832031 219.972656 91.9375 222.523438 91.9375 225.347656 C 91.9375 229.636719 89.386719 233.339844 85.726562 235.011719 C 84.375 235.640625 82.882812 235.980469 81.304688 235.980469 C 77.417969 235.980469 74.007812 233.902344 72.15625 230.765625 L 72.15625 238.285156 L 35.804688 238.285156 L 35.804688 217.828125 C 35.804688 216.628906 35.828125 215.457031 35.871094 214.304688 C 36.886719 189.941406 48.675781 177.386719 64.933594 174.046875 L 64.933594 214.304688 L 72.15625 214.304688 L 72.15625 219.925781 C 72.269531 219.746094 72.359375 219.589844 72.496094 219.40625 C 74.414062 216.5625 77.644531 214.710938 81.324219 214.710938 C 82.136719 214.710938 82.929688 214.800781 83.695312 214.980469 L 90.042969 203.984375 C 88.394531 201.683594 88.144531 198.519531 89.632812 195.925781 C 91.011719 193.53125 93.519531 192.199219 96.070312 192.199219 L 93.269531 197.054688 C 92.886719 197.707031 93.113281 198.542969 93.765625 198.929688 L 97.875 201.296875 C 98.53125 201.683594 99.367188 201.457031 99.75 200.800781 L 102.550781 195.949219 C 103.835938 198.160156 103.925781 201.003906 102.550781 203.375 Z M 136.871094 206.605469 C 136.871094 207.148438 136.847656 207.667969 136.828125 208.207031 L 136.828125 238.441406 L 116.367188 238.441406 L 116.367188 217.828125 L 108.78125 217.828125 L 108.78125 173.570312 C 124.699219 176.121094 136.871094 189.941406 136.871094 206.605469 Z M 35.871094 214.328125 C 35.828125 215.480469 35.804688 216.628906 35.804688 217.828125 L 35.804688 214.304688 L 35.871094 214.304688 Z M 35.871094 214.328125 " fill-opacity="1" fill-rule="nonzero"/></g><g fill="#1c7bc8" fill-opacity="1"><g transform="translate(147.732813, 195.286986)"><g><path d="M 25.25 -21.046875 C 25.25 -19.421875 24.859375 -17.894531 24.078125 -16.46875 C 23.304688 -15.039062 22.097656 -13.890625 20.453125 -13.015625 C 18.816406 -12.140625 16.742188 -11.703125 14.234375 -11.703125 L 9.125 -11.703125 L 9.125 0 L 3.015625 0 L 3.015625 -30.484375 L 14.234375 -30.484375 C 16.597656 -30.484375 18.609375 -30.070312 20.265625 -29.25 C 21.921875 -28.4375 23.164062 -27.316406 24 -25.890625 C 24.832031 -24.460938 25.25 -22.847656 25.25 -21.046875 Z M 13.96875 -16.640625 C 15.664062 -16.640625 16.921875 -17.023438 17.734375 -17.796875 C 18.546875 -18.566406 18.953125 -19.648438 18.953125 -21.046875 C 18.953125 -24.015625 17.289062 -25.5 13.96875 -25.5 L 9.125 -25.5 L 9.125 -16.640625 Z M 13.96875 -16.640625 "/></g></g></g><g fill="#1c7bc8" fill-opacity="1"><g transform="translate(171.66135, 195.286986)"><g><path d="M 9.125 -4.84375 L 19.171875 -4.84375 L 19.171875 0 L 3.015625 0 L 3.015625 -30.484375 L 9.125 -30.484375 Z M 9.125 -4.84375 "/></g></g></g><g fill="#1c7bc8" fill-opacity="1"><g transform="translate(189.083561, 195.286986)"><g><path d="M 9.046875 -30.484375 L 9.046875 -11.609375 C 9.046875 -9.546875 9.582031 -7.96875 10.65625 -6.875 C 11.726562 -5.78125 13.242188 -5.234375 15.203125 -5.234375 C 17.179688 -5.234375 18.707031 -5.78125 19.78125 -6.875 C 20.863281 -7.96875 21.40625 -9.546875 21.40625 -11.609375 L 21.40625 -30.484375 L 27.5625 -30.484375 L 27.5625 -11.65625 C 27.5625 -9.070312 27 -6.882812 25.875 -5.09375 C 24.75 -3.300781 23.25 -1.953125 21.375 -1.046875 C 19.5 -0.140625 17.410156 0.3125 15.109375 0.3125 C 12.835938 0.3125 10.773438 -0.140625 8.921875 -1.046875 C 7.078125 -1.953125 5.613281 -3.300781 4.53125 -5.09375 C 3.457031 -6.882812 2.921875 -9.070312 2.921875 -11.65625 L 2.921875 -30.484375 Z M 9.046875 -30.484375 "/></g></g></g><g fill="#1c7bc8" fill-opacity="1"><g transform="translate(216.898421, 195.286986)"><g><path d="M 36.25 -30.484375 L 36.25 0 L 30.140625 0 L 30.140625 -19.828125 L 21.96875 0 L 17.34375 0 L 9.125 -19.828125 L 9.125 0 L 3.015625 0 L 3.015625 -30.484375 L 9.953125 -30.484375 L 19.65625 -7.8125 L 29.34375 -30.484375 Z M 36.25 -30.484375 "/></g></g></g><g fill="#1c7bc8" fill-opacity="1"><g transform="translate(253.533943, 195.286986)"><g><path d="M 20.3125 -15.640625 C 22.03125 -15.316406 23.441406 -14.457031 24.546875 -13.0625 C 25.648438 -11.664062 26.203125 -10.0625 26.203125 -8.25 C 26.203125 -6.625 25.800781 -5.191406 25 -3.953125 C 24.195312 -2.710938 23.039062 -1.742188 21.53125 -1.046875 C 20.019531 -0.347656 18.226562 0 16.15625 0 L 3.015625 0 L 3.015625 -30.484375 L 15.59375 -30.484375 C 17.65625 -30.484375 19.4375 -30.144531 20.9375 -29.46875 C 22.4375 -28.800781 23.570312 -27.867188 24.34375 -26.671875 C 25.113281 -25.484375 25.5 -24.132812 25.5 -22.625 C 25.5 -20.84375 25.023438 -19.351562 24.078125 -18.15625 C 23.140625 -16.96875 21.882812 -16.128906 20.3125 -15.640625 Z M 9.125 -17.90625 L 14.71875 -17.90625 C 16.175781 -17.90625 17.296875 -18.234375 18.078125 -18.890625 C 18.867188 -19.546875 19.265625 -20.484375 19.265625 -21.703125 C 19.265625 -22.929688 18.867188 -23.878906 18.078125 -24.546875 C 17.296875 -25.210938 16.175781 -25.546875 14.71875 -25.546875 L 9.125 -25.546875 Z M 15.28125 -4.984375 C 16.769531 -4.984375 17.925781 -5.332031 18.75 -6.03125 C 19.582031 -6.726562 20 -7.71875 20 -9 C 20 -10.3125 19.5625 -11.335938 18.6875 -12.078125 C 17.8125 -12.816406 16.632812 -13.1875 15.15625 -13.1875 L 9.125 -13.1875 L 9.125 -4.984375 Z M 15.28125 -4.984375 "/></g></g></g><g fill="#1c7bc8" fill-opacity="1"><g transform="translate(278.990817, 195.286986)"><g><path d="M 9.125 -30.484375 L 9.125 0 L 3.015625 0 L 3.015625 -30.484375 Z M 9.125 -30.484375 "/></g></g></g><g fill="#1c7bc8" fill-opacity="1"><g transform="translate(288.509377, 195.286986)"><g><path d="M 29.078125 0 L 22.96875 0 L 9.125 -20.921875 L 9.125 0 L 3.015625 0 L 3.015625 -30.53125 L 9.125 -30.53125 L 22.96875 -9.5625 L 22.96875 -30.53125 L 29.078125 -30.53125 Z M 29.078125 0 "/></g></g></g><g fill="#1c7bc8" fill-opacity="1"><g transform="translate(317.983572, 195.286986)"><g><path d="M 24.234375 -21.3125 C 23.535156 -22.59375 22.570312 -23.566406 21.34375 -24.234375 C 20.125 -24.910156 18.703125 -25.25 17.078125 -25.25 C 15.273438 -25.25 13.671875 -24.835938 12.265625 -24.015625 C 10.867188 -23.203125 9.773438 -22.035156 8.984375 -20.515625 C 8.203125 -19.003906 7.8125 -17.257812 7.8125 -15.28125 C 7.8125 -13.25 8.210938 -11.472656 9.015625 -9.953125 C 9.816406 -8.441406 10.929688 -7.273438 12.359375 -6.453125 C 13.785156 -5.640625 15.445312 -5.234375 17.34375 -5.234375 C 19.664062 -5.234375 21.566406 -5.851562 23.046875 -7.09375 C 24.535156 -8.332031 25.515625 -10.054688 25.984375 -12.265625 L 15.5 -12.265625 L 15.5 -16.9375 L 32.015625 -16.9375 L 32.015625 -11.609375 C 31.609375 -9.484375 30.734375 -7.519531 29.390625 -5.71875 C 28.046875 -3.914062 26.316406 -2.46875 24.203125 -1.375 C 22.097656 -0.28125 19.738281 0.265625 17.125 0.265625 C 14.175781 0.265625 11.515625 -0.394531 9.140625 -1.71875 C 6.773438 -3.050781 4.914062 -4.894531 3.5625 -7.25 C 2.207031 -9.601562 1.53125 -12.28125 1.53125 -15.28125 C 1.53125 -18.28125 2.207031 -20.96875 3.5625 -23.34375 C 4.914062 -25.71875 6.773438 -27.566406 9.140625 -28.890625 C 11.515625 -30.210938 14.160156 -30.875 17.078125 -30.875 C 20.515625 -30.875 23.5 -30.035156 26.03125 -28.359375 C 28.5625 -26.691406 30.304688 -24.34375 31.265625 -21.3125 Z M 24.234375 -21.3125 "/></g></g></g><g fill="#1c7bc8" fill-opacity="1"><g transform="translate(147.171249, 236.990952)"><g><path d="M 13.015625 0.3125 C 11.003906 0.3125 9.203125 -0.0390625 7.609375 -0.75 C 6.023438 -1.46875 4.78125 -2.460938 3.875 -3.734375 C 2.976562 -5.003906 2.515625 -6.46875 2.484375 -8.125 L 6.71875 -8.125 C 6.863281 -6.695312 7.453125 -5.492188 8.484375 -4.515625 C 9.523438 -3.546875 11.035156 -3.0625 13.015625 -3.0625 C 14.910156 -3.0625 16.398438 -3.53125 17.484375 -4.46875 C 18.578125 -5.414062 19.125 -6.632812 19.125 -8.125 C 19.125 -9.289062 18.800781 -10.234375 18.15625 -10.953125 C 17.519531 -11.679688 16.722656 -12.234375 15.765625 -12.609375 C 14.804688 -12.992188 13.507812 -13.40625 11.875 -13.84375 C 9.863281 -14.363281 8.253906 -14.882812 7.046875 -15.40625 C 5.835938 -15.9375 4.800781 -16.757812 3.9375 -17.875 C 3.082031 -19 2.65625 -20.507812 2.65625 -22.40625 C 2.65625 -24.0625 3.078125 -25.53125 3.921875 -26.8125 C 4.773438 -28.09375 5.960938 -29.082031 7.484375 -29.78125 C 9.015625 -30.476562 10.769531 -30.828125 12.75 -30.828125 C 15.601562 -30.828125 17.9375 -30.113281 19.75 -28.6875 C 21.570312 -27.257812 22.601562 -25.367188 22.84375 -23.015625 L 18.46875 -23.015625 C 18.320312 -24.179688 17.707031 -25.207031 16.625 -26.09375 C 15.550781 -26.976562 14.128906 -27.421875 12.359375 -27.421875 C 10.703125 -27.421875 9.347656 -26.988281 8.296875 -26.125 C 7.242188 -25.269531 6.71875 -24.070312 6.71875 -22.53125 C 6.71875 -21.425781 7.03125 -20.523438 7.65625 -19.828125 C 8.289062 -19.128906 9.066406 -18.597656 9.984375 -18.234375 C 10.898438 -17.867188 12.1875 -17.453125 13.84375 -16.984375 C 15.851562 -16.429688 17.46875 -15.882812 18.6875 -15.34375 C 19.914062 -14.8125 20.960938 -13.984375 21.828125 -12.859375 C 22.703125 -11.742188 23.140625 -10.222656 23.140625 -8.296875 C 23.140625 -6.816406 22.742188 -5.421875 21.953125 -4.109375 C 21.171875 -2.796875 20.007812 -1.726562 18.46875 -0.90625 C 16.925781 -0.09375 15.109375 0.3125 13.015625 0.3125 Z M 13.015625 0.3125 "/></g></g></g><g fill="#1c7bc8" fill-opacity="1"><g transform="translate(171.05637, 236.990952)"><g><path d="M 25.203125 -12.890625 C 25.203125 -12.128906 25.15625 -11.328125 25.0625 -10.484375 L 5.9375 -10.484375 C 6.082031 -8.117188 6.890625 -6.273438 8.359375 -4.953125 C 9.828125 -3.628906 11.613281 -2.96875 13.71875 -2.96875 C 15.4375 -2.96875 16.867188 -3.367188 18.015625 -4.171875 C 19.160156 -4.972656 19.96875 -6.039062 20.4375 -7.375 L 24.71875 -7.375 C 24.070312 -5.082031 22.789062 -3.210938 20.875 -1.765625 C 18.957031 -0.328125 16.570312 0.390625 13.71875 0.390625 C 11.445312 0.390625 9.414062 -0.113281 7.625 -1.125 C 5.832031 -2.144531 4.425781 -3.59375 3.40625 -5.46875 C 2.382812 -7.351562 1.875 -9.535156 1.875 -12.015625 C 1.875 -14.484375 2.367188 -16.648438 3.359375 -18.515625 C 4.347656 -20.378906 5.738281 -21.8125 7.53125 -22.8125 C 9.320312 -23.820312 11.382812 -24.328125 13.71875 -24.328125 C 15.988281 -24.328125 17.992188 -23.832031 19.734375 -22.84375 C 21.484375 -21.851562 22.832031 -20.488281 23.78125 -18.75 C 24.726562 -17.019531 25.203125 -15.066406 25.203125 -12.890625 Z M 21.09375 -13.71875 C 21.09375 -15.226562 20.753906 -16.53125 20.078125 -17.625 C 19.410156 -18.71875 18.503906 -19.546875 17.359375 -20.109375 C 16.210938 -20.679688 14.9375 -20.96875 13.53125 -20.96875 C 11.53125 -20.96875 9.820312 -20.328125 8.40625 -19.046875 C 6.988281 -17.765625 6.179688 -15.988281 5.984375 -13.71875 Z M 21.09375 -13.71875 "/></g></g></g><g fill="#1c7bc8" fill-opacity="1"><g transform="translate(196.382493, 236.990952)"><g><path d="M 7.34375 -20.046875 C 8.039062 -21.410156 9.035156 -22.472656 10.328125 -23.234375 C 11.617188 -23.992188 13.195312 -24.375 15.0625 -24.375 L 15.0625 -20.265625 L 14.015625 -20.265625 C 9.566406 -20.265625 7.34375 -17.847656 7.34375 -13.015625 L 7.34375 0 L 3.359375 0 L 3.359375 -23.9375 L 7.34375 -23.9375 Z M 7.34375 -20.046875 "/></g></g></g><g fill="#1c7bc8" fill-opacity="1"><g transform="translate(210.922969, 236.990952)"><g><path d="M 12.265625 -3.671875 L 19.703125 -23.9375 L 23.9375 -23.9375 L 14.546875 0 L 9.90625 0 L 0.53125 -23.9375 L 4.796875 -23.9375 Z M 12.265625 -3.671875 "/></g></g></g><g fill="#1c7bc8" fill-opacity="1"><g transform="translate(233.672759, 236.990952)"><g><path d="M 5.421875 -27.8125 C 4.660156 -27.8125 4.015625 -28.070312 3.484375 -28.59375 C 2.960938 -29.125 2.703125 -29.769531 2.703125 -30.53125 C 2.703125 -31.28125 2.960938 -31.914062 3.484375 -32.4375 C 4.015625 -32.96875 4.660156 -33.234375 5.421875 -33.234375 C 6.140625 -33.234375 6.753906 -32.96875 7.265625 -32.4375 C 7.773438 -31.914062 8.03125 -31.28125 8.03125 -30.53125 C 8.03125 -29.769531 7.773438 -29.125 7.265625 -28.59375 C 6.753906 -28.070312 6.140625 -27.8125 5.421875 -27.8125 Z M 7.34375 -23.9375 L 7.34375 0 L 3.359375 0 L 3.359375 -23.9375 Z M 7.34375 -23.9375 "/></g></g></g><g fill="#1c7bc8" fill-opacity="1"><g transform="translate(242.667567, 236.990952)"><g><path d="M 1.875 -12.015625 C 1.875 -14.484375 2.367188 -16.640625 3.359375 -18.484375 C 4.347656 -20.335938 5.722656 -21.773438 7.484375 -22.796875 C 9.242188 -23.816406 11.257812 -24.328125 13.53125 -24.328125 C 16.476562 -24.328125 18.90625 -23.613281 20.8125 -22.1875 C 22.71875 -20.757812 23.976562 -18.78125 24.59375 -16.25 L 20.3125 -16.25 C 19.90625 -17.695312 19.109375 -18.84375 17.921875 -19.6875 C 16.742188 -20.539062 15.28125 -20.96875 13.53125 -20.96875 C 11.257812 -20.96875 9.425781 -20.1875 8.03125 -18.625 C 6.632812 -17.070312 5.9375 -14.867188 5.9375 -12.015625 C 5.9375 -9.128906 6.632812 -6.898438 8.03125 -5.328125 C 9.425781 -3.753906 11.257812 -2.96875 13.53125 -2.96875 C 15.28125 -2.96875 16.738281 -3.375 17.90625 -4.1875 C 19.070312 -5.007812 19.875 -6.175781 20.3125 -7.6875 L 24.59375 -7.6875 C 23.945312 -5.238281 22.660156 -3.28125 20.734375 -1.8125 C 18.816406 -0.34375 16.414062 0.390625 13.53125 0.390625 C 11.257812 0.390625 9.242188 -0.113281 7.484375 -1.125 C 5.722656 -2.144531 4.347656 -3.585938 3.359375 -5.453125 C 2.367188 -7.316406 1.875 -9.503906 1.875 -12.015625 Z M 1.875 -12.015625 "/></g></g></g><g fill="#1c7bc8" fill-opacity="1"><g transform="translate(267.426019, 236.990952)"><g><path d="M 25.203125 -12.890625 C 25.203125 -12.128906 25.15625 -11.328125 25.0625 -10.484375 L 5.9375 -10.484375 C 6.082031 -8.117188 6.890625 -6.273438 8.359375 -4.953125 C 9.828125 -3.628906 11.613281 -2.96875 13.71875 -2.96875 C 15.4375 -2.96875 16.867188 -3.367188 18.015625 -4.171875 C 19.160156 -4.972656 19.96875 -6.039062 20.4375 -7.375 L 24.71875 -7.375 C 24.070312 -5.082031 22.789062 -3.210938 20.875 -1.765625 C 18.957031 -0.328125 16.570312 0.390625 13.71875 0.390625 C 11.445312 0.390625 9.414062 -0.113281 7.625 -1.125 C 5.832031 -2.144531 4.425781 -3.59375 3.40625 -5.46875 C 2.382812 -7.351562 1.875 -9.535156 1.875 -12.015625 C 1.875 -14.484375 2.367188 -16.648438 3.359375 -18.515625 C 4.347656 -20.378906 5.738281 -21.8125 7.53125 -22.8125 C 9.320312 -23.820312 11.382812 -24.328125 13.71875 -24.328125 C 15.988281 -24.328125 17.992188 -23.832031 19.734375 -22.84375 C 21.484375 -21.851562 22.832031 -20.488281 23.78125 -18.75 C 24.726562 -17.019531 25.203125 -15.066406 25.203125 -12.890625 Z M 21.09375 -13.71875 C 21.09375 -15.226562 20.753906 -16.53125 20.078125 -17.625 C 19.410156 -18.71875 18.503906 -19.546875 17.359375 -20.109375 C 16.210938 -20.679688 14.9375 -20.96875 13.53125 -20.96875 C 11.53125 -20.96875 9.820312 -20.328125 8.40625 -19.046875 C 6.988281 -17.765625 6.179688 -15.988281 5.984375 -13.71875 Z M 21.09375 -13.71875 "/></g></g></g><g fill="#1c7bc8" fill-opacity="1"><g transform="translate(147.732813, 150.580778)"><g><path d="M 9.546875 -8.671875 C 9.546875 -7.648438 9.195312 -6.800781 8.5 -6.125 C 7.800781 -5.445312 6.738281 -5.109375 5.3125 -5.109375 L 2.953125 -5.109375 L 2.953125 0 L 1.359375 0 L 1.359375 -12.25 L 5.3125 -12.25 C 6.695312 -12.25 7.75 -11.914062 8.46875 -11.25 C 9.1875 -10.582031 9.546875 -9.722656 9.546875 -8.671875 Z M 5.3125 -6.4375 C 6.195312 -6.4375 6.847656 -6.628906 7.265625 -7.015625 C 7.691406 -7.398438 7.90625 -7.953125 7.90625 -8.671875 C 7.90625 -10.179688 7.039062 -10.9375 5.3125 -10.9375 L 2.953125 -10.9375 L 2.953125 -6.4375 Z M 5.3125 -6.4375 "/></g></g></g><g fill="#1c7bc8" fill-opacity="1"><g transform="translate(157.911265, 150.580778)"><g><path d="M 7.8125 0 L 4.890625 -5.015625 L 2.953125 -5.015625 L 2.953125 0 L 1.359375 0 L 1.359375 -12.25 L 5.3125 -12.25 C 6.238281 -12.25 7.019531 -12.085938 7.65625 -11.765625 C 8.289062 -11.453125 8.765625 -11.023438 9.078125 -10.484375 C 9.398438 -9.953125 9.5625 -9.34375 9.5625 -8.65625 C 9.5625 -7.8125 9.316406 -7.066406 8.828125 -6.421875 C 8.347656 -5.773438 7.617188 -5.347656 6.640625 -5.140625 L 9.71875 0 Z M 2.953125 -6.296875 L 5.3125 -6.296875 C 6.175781 -6.296875 6.820312 -6.507812 7.25 -6.9375 C 7.6875 -7.363281 7.90625 -7.9375 7.90625 -8.65625 C 7.90625 -9.375 7.691406 -9.929688 7.265625 -10.328125 C 6.835938 -10.734375 6.1875 -10.9375 5.3125 -10.9375 L 2.953125 -10.9375 Z M 2.953125 -6.296875 "/></g></g></g><g fill="#1c7bc8" fill-opacity="1"><g transform="translate(168.599529, 150.580778)"><g><path d="M 6.90625 0.125 C 5.769531 0.125 4.734375 -0.140625 3.796875 -0.671875 C 2.859375 -1.210938 2.113281 -1.957031 1.5625 -2.90625 C 1.019531 -3.863281 0.75 -4.941406 0.75 -6.140625 C 0.75 -7.328125 1.019531 -8.398438 1.5625 -9.359375 C 2.113281 -10.316406 2.859375 -11.0625 3.796875 -11.59375 C 4.734375 -12.125 5.769531 -12.390625 6.90625 -12.390625 C 8.050781 -12.390625 9.09375 -12.125 10.03125 -11.59375 C 10.96875 -11.0625 11.707031 -10.320312 12.25 -9.375 C 12.789062 -8.425781 13.0625 -7.347656 13.0625 -6.140625 C 13.0625 -4.929688 12.789062 -3.851562 12.25 -2.90625 C 11.707031 -1.957031 10.96875 -1.210938 10.03125 -0.671875 C 9.09375 -0.140625 8.050781 0.125 6.90625 0.125 Z M 6.90625 -1.265625 C 7.757812 -1.265625 8.53125 -1.460938 9.21875 -1.859375 C 9.90625 -2.265625 10.441406 -2.832031 10.828125 -3.5625 C 11.222656 -4.300781 11.421875 -5.160156 11.421875 -6.140625 C 11.421875 -7.117188 11.222656 -7.972656 10.828125 -8.703125 C 10.441406 -9.441406 9.90625 -10.007812 9.21875 -10.40625 C 8.539062 -10.800781 7.769531 -11 6.90625 -11 C 6.039062 -11 5.265625 -10.800781 4.578125 -10.40625 C 3.898438 -10.007812 3.363281 -9.441406 2.96875 -8.703125 C 2.582031 -7.972656 2.390625 -7.117188 2.390625 -6.140625 C 2.390625 -5.160156 2.582031 -4.300781 2.96875 -3.5625 C 3.363281 -2.832031 3.90625 -2.265625 4.59375 -1.859375 C 5.28125 -1.460938 6.050781 -1.265625 6.90625 -1.265625 Z M 6.90625 -1.265625 "/></g></g></g><g fill="#1c7bc8" fill-opacity="1"><g transform="translate(182.416917, 150.580778)"><g><path d="M 8.28125 -12.25 L 8.28125 -10.953125 L 2.953125 -10.953125 L 2.953125 -6.828125 L 7.28125 -6.828125 L 7.28125 -5.515625 L 2.953125 -5.515625 L 2.953125 0 L 1.359375 0 L 1.359375 -12.25 Z M 8.28125 -12.25 "/></g></g></g><g fill="#1c7bc8" fill-opacity="1"><g transform="translate(191.276921, 150.580778)"><g><path d="M 2.953125 -10.953125 L 2.953125 -6.859375 L 7.421875 -6.859375 L 7.421875 -5.53125 L 2.953125 -5.53125 L 2.953125 -1.3125 L 7.953125 -1.3125 L 7.953125 0 L 1.359375 0 L 1.359375 -12.265625 L 7.953125 -12.265625 L 7.953125 -10.953125 Z M 2.953125 -10.953125 "/></g></g></g><g fill="#1c7bc8" fill-opacity="1"><g transform="translate(200.295141, 150.580778)"><g><path d="M 5.234375 0.125 C 4.429688 0.125 3.707031 -0.015625 3.0625 -0.296875 C 2.425781 -0.585938 1.925781 -0.988281 1.5625 -1.5 C 1.195312 -2.007812 1.007812 -2.597656 1 -3.265625 L 2.703125 -3.265625 C 2.765625 -2.691406 3.003906 -2.207031 3.421875 -1.8125 C 3.835938 -1.425781 4.441406 -1.234375 5.234375 -1.234375 C 5.992188 -1.234375 6.59375 -1.421875 7.03125 -1.796875 C 7.476562 -2.179688 7.703125 -2.671875 7.703125 -3.265625 C 7.703125 -3.734375 7.570312 -4.113281 7.3125 -4.40625 C 7.050781 -4.707031 6.726562 -4.929688 6.34375 -5.078125 C 5.957031 -5.234375 5.4375 -5.398438 4.78125 -5.578125 C 3.96875 -5.785156 3.316406 -5.992188 2.828125 -6.203125 C 2.347656 -6.410156 1.9375 -6.738281 1.59375 -7.1875 C 1.25 -7.644531 1.078125 -8.253906 1.078125 -9.015625 C 1.078125 -9.679688 1.242188 -10.269531 1.578125 -10.78125 C 1.921875 -11.300781 2.398438 -11.703125 3.015625 -11.984375 C 3.628906 -12.265625 4.335938 -12.40625 5.140625 -12.40625 C 6.285156 -12.40625 7.222656 -12.117188 7.953125 -11.546875 C 8.679688 -10.972656 9.09375 -10.210938 9.1875 -9.265625 L 7.4375 -9.265625 C 7.375 -9.734375 7.125 -10.144531 6.6875 -10.5 C 6.257812 -10.863281 5.6875 -11.046875 4.96875 -11.046875 C 4.300781 -11.046875 3.753906 -10.867188 3.328125 -10.515625 C 2.910156 -10.171875 2.703125 -9.691406 2.703125 -9.078125 C 2.703125 -8.628906 2.828125 -8.265625 3.078125 -7.984375 C 3.335938 -7.703125 3.648438 -7.488281 4.015625 -7.34375 C 4.390625 -7.195312 4.910156 -7.03125 5.578125 -6.84375 C 6.378906 -6.613281 7.023438 -6.390625 7.515625 -6.171875 C 8.015625 -5.960938 8.4375 -5.628906 8.78125 -5.171875 C 9.132812 -4.722656 9.3125 -4.113281 9.3125 -3.34375 C 9.3125 -2.738281 9.15625 -2.171875 8.84375 -1.640625 C 8.53125 -1.117188 8.0625 -0.691406 7.4375 -0.359375 C 6.8125 -0.0351562 6.078125 0.125 5.234375 0.125 Z M 5.234375 0.125 "/></g></g></g><g fill="#1c7bc8" fill-opacity="1"><g transform="translate(210.614227, 150.580778)"><g><path d="M 5.234375 0.125 C 4.429688 0.125 3.707031 -0.015625 3.0625 -0.296875 C 2.425781 -0.585938 1.925781 -0.988281 1.5625 -1.5 C 1.195312 -2.007812 1.007812 -2.597656 1 -3.265625 L 2.703125 -3.265625 C 2.765625 -2.691406 3.003906 -2.207031 3.421875 -1.8125 C 3.835938 -1.425781 4.441406 -1.234375 5.234375 -1.234375 C 5.992188 -1.234375 6.59375 -1.421875 7.03125 -1.796875 C 7.476562 -2.179688 7.703125 -2.671875 7.703125 -3.265625 C 7.703125 -3.734375 7.570312 -4.113281 7.3125 -4.40625 C 7.050781 -4.707031 6.726562 -4.929688 6.34375 -5.078125 C 5.957031 -5.234375 5.4375 -5.398438 4.78125 -5.578125 C 3.96875 -5.785156 3.316406 -5.992188 2.828125 -6.203125 C 2.347656 -6.410156 1.9375 -6.738281 1.59375 -7.1875 C 1.25 -7.644531 1.078125 -8.253906 1.078125 -9.015625 C 1.078125 -9.679688 1.242188 -10.269531 1.578125 -10.78125 C 1.921875 -11.300781 2.398438 -11.703125 3.015625 -11.984375 C 3.628906 -12.265625 4.335938 -12.40625 5.140625 -12.40625 C 6.285156 -12.40625 7.222656 -12.117188 7.953125 -11.546875 C 8.679688 -10.972656 9.09375 -10.210938 9.1875 -9.265625 L 7.4375 -9.265625 C 7.375 -9.734375 7.125 -10.144531 6.6875 -10.5 C 6.257812 -10.863281 5.6875 -11.046875 4.96875 -11.046875 C 4.300781 -11.046875 3.753906 -10.867188 3.328125 -10.515625 C 2.910156 -10.171875 2.703125 -9.691406 2.703125 -9.078125 C 2.703125 -8.628906 2.828125 -8.265625 3.078125 -7.984375 C 3.335938 -7.703125 3.648438 -7.488281 4.015625 -7.34375 C 4.390625 -7.195312 4.910156 -7.03125 5.578125 -6.84375 C 6.378906 -6.613281 7.023438 -6.390625 7.515625 -6.171875 C 8.015625 -5.960938 8.4375 -5.628906 8.78125 -5.171875 C 9.132812 -4.722656 9.3125 -4.113281 9.3125 -3.34375 C 9.3125 -2.738281 9.15625 -2.171875 8.84375 -1.640625 C 8.53125 -1.117188 8.0625 -0.691406 7.4375 -0.359375 C 6.8125 -0.0351562 6.078125 0.125 5.234375 0.125 Z M 5.234375 0.125 "/></g></g></g><g fill="#1c7bc8" fill-opacity="1"><g transform="translate(220.933312, 150.580778)"><g><path d="M 2.953125 -12.25 L 2.953125 0 L 1.359375 0 L 1.359375 -12.25 Z M 2.953125 -12.25 "/></g></g></g><g fill="#1c7bc8" fill-opacity="1"><g transform="translate(225.257833, 150.580778)"><g><path d="M 6.90625 0.125 C 5.769531 0.125 4.734375 -0.140625 3.796875 -0.671875 C 2.859375 -1.210938 2.113281 -1.957031 1.5625 -2.90625 C 1.019531 -3.863281 0.75 -4.941406 0.75 -6.140625 C 0.75 -7.328125 1.019531 -8.398438 1.5625 -9.359375 C 2.113281 -10.316406 2.859375 -11.0625 3.796875 -11.59375 C 4.734375 -12.125 5.769531 -12.390625 6.90625 -12.390625 C 8.050781 -12.390625 9.09375 -12.125 10.03125 -11.59375 C 10.96875 -11.0625 11.707031 -10.320312 12.25 -9.375 C 12.789062 -8.425781 13.0625 -7.347656 13.0625 -6.140625 C 13.0625 -4.929688 12.789062 -3.851562 12.25 -2.90625 C 11.707031 -1.957031 10.96875 -1.210938 10.03125 -0.671875 C 9.09375 -0.140625 8.050781 0.125 6.90625 0.125 Z M 6.90625 -1.265625 C 7.757812 -1.265625 8.53125 -1.460938 9.21875 -1.859375 C 9.90625 -2.265625 10.441406 -2.832031 10.828125 -3.5625 C 11.222656 -4.300781 11.421875 -5.160156 11.421875 -6.140625 C 11.421875 -7.117188 11.222656 -7.972656 10.828125 -8.703125 C 10.441406 -9.441406 9.90625 -10.007812 9.21875 -10.40625 C 8.539062 -10.800781 7.769531 -11 6.90625 -11 C 6.039062 -11 5.265625 -10.800781 4.578125 -10.40625 C 3.898438 -10.007812 3.363281 -9.441406 2.96875 -8.703125 C 2.582031 -7.972656 2.390625 -7.117188 2.390625 -6.140625 C 2.390625 -5.160156 2.582031 -4.300781 2.96875 -3.5625 C 3.363281 -2.832031 3.90625 -2.265625 4.59375 -1.859375 C 5.28125 -1.460938 6.050781 -1.265625 6.90625 -1.265625 Z M 6.90625 -1.265625 "/></g></g></g><g fill="#1c7bc8" fill-opacity="1"><g transform="translate(239.075221, 150.580778)"><g><path d="M 10.984375 0 L 9.390625 0 L 2.953125 -9.75 L 2.953125 0 L 1.359375 0 L 1.359375 -12.265625 L 2.953125 -12.265625 L 9.390625 -2.53125 L 9.390625 -12.265625 L 10.984375 -12.265625 Z M 10.984375 0 "/></g></g></g><g fill="#1c7bc8" fill-opacity="1"><g transform="translate(251.433516, 150.580778)"><g><path d="M 8.59375 -2.71875 L 3.25 -2.71875 L 2.265625 0 L 0.578125 0 L 5.015625 -12.1875 L 6.859375 -12.1875 L 11.265625 0 L 9.578125 0 Z M 8.140625 -4.03125 L 5.921875 -10.21875 L 3.703125 -4.03125 Z M 8.140625 -4.03125 "/></g></g></g><g fill="#1c7bc8" fill-opacity="1"><g transform="translate(263.282011, 150.580778)"><g><path d="M 2.953125 -1.296875 L 7.25 -1.296875 L 7.25 0 L 1.359375 0 L 1.359375 -12.25 L 2.953125 -12.25 Z M 2.953125 -1.296875 "/></g></g></g></svg>